<?xml version="1.0" encoding="UTF-8"?>
<svg id="Layer_1" xmlns="http://www.w3.org/2000/svg" version="1.1" viewBox="0 0 106.47 103.2">
  <!-- Generator: Adobe Illustrator 29.3.1, SVG Export Plug-In . SVG Version: 2.1.0 Build 151)  -->
  <defs>
    <style>
      .st0 {
        stroke-width: .5px;
      }

      .st0, .st1 {
        fill: none;
        stroke: #3856a6;
        stroke-miterlimit: 10;
      }
    </style>
  </defs>
  <ellipse class="st1" cx="46.78" cy="52.19" rx="44.67" ry="49.85"/>
  <ellipse class="st0" cx="46.32" cy="52.22" rx="41.57" ry="47.89"/>
  <ellipse class="st0" cx="45.89" cy="52.46" rx="38.95" ry="45.21"/>
  <ellipse class="st0" cx="45.05" cy="52.31" rx="36.19" ry="42.21"/>
  <ellipse class="st0" cx="44.32" cy="52.31" rx="33.53" ry="39.96"/>
  <ellipse class="st0" cx="43.7" cy="52.32" rx="30.88" ry="36.8"/>
  <ellipse class="st0" cx="43.17" cy="52.32" rx="28.35" ry="33.79"/>
  <ellipse class="st0" cx="42.58" cy="52.1" rx="26.01" ry="30.99"/>
  <ellipse class="st0" cx="42" cy="51.64" rx="23.53" ry="28.04"/>
  <ellipse class="st0" cx="41.94" cy="51.59" rx="21.15" ry="25.21"/>
  <ellipse class="st0" cx="41.29" cy="51.44" rx="18.74" ry="22.34"/>
  <ellipse class="st1" cx="40.96" cy="51.44" rx="16.46" ry="19.2"/>
  <path class="st1" d="M60.78,4.84l27.98,14.54c5.2,2.7,10.98,8.95,13.82,18.47,2.66,8.94,4.88,27.96-10.66,40.04l-18.52,14.39"/>
</svg>