<?xml version="1.0" encoding="UTF-8"?>
<svg id="Layer_1" xmlns="http://www.w3.org/2000/svg" version="1.1" viewBox="0 0 253 352.02">
  <!-- Generator: Adobe Illustrator 29.3.1, SVG Export Plug-In . SVG Version: 2.1.0 Build 151)  -->
  <defs>
    <style>
      .st0 {
        fill: none;
        stroke: #3957a6;
        stroke-miterlimit: 10;
      }
    </style>
  </defs>
  <path class="st0" d="M2.28,349.57h205.38v-112.29l-7.56-7.56v-22.11s-11.64-2.33-11.64-20.65-29.86-35.42-41.54-38.47c-9.75-2.55-63.77-12.36-90.69,1.31-11.08,5.63-38.36,15.66-37.08,47.64.21,5.22-6.4,10.18-10.18,10.18s-.18,22.11-.18,22.11l-6.51,7.56v112.29Z"/>
  <polyline class="st0" points="62.43 147.2 62.43 110.81 55.87 110.81 55.87 83.17 152.45 83.17 152.45 110.81 146.49 110.81 146.49 148.48"/>
  <rect class="st0" x="60.87" y="87.19" width="69.6" height="19.78"/>
  <path class="st0" d="M67.56,114.83v26.84c1.34.56,17.61-5.45,56.22,0v-26.84s-56.22,0-56.22,0Z"/>
  <path class="st0" d="M24.47,349.57v-84.67c.29-1.13,22.85-33.42,51.71,0v84.67"/>
  <path class="st0" d="M114.5,349.57v-84.31c1.04-1.53,22.74-35.19,51.05,0v84.31"/>
  <polygon class="st0" points="92.47 148.48 99.23 148.48 99.23 345.63 91.81 345.63 92.47 148.48"/>
  <path class="st0" d="M67.56,83.17s-1.71-3.2-3.75-5.67-1.38-16.44,3.75-18.62,14-3.35,15.89,0,2.47,9.83,2.91,11.1,4.22-8.45-.73-13.19-9.89-2.41-10.91-2.27.44-15.56,8.44-16,.47,10.18,12.82,7.85-10.93,3.64-8.16-11.49,9.75-11.78,14.4-11.49,6.11-3.78,8.44-3.78,5.53-1.02,8-4.8,12.8-8.73,17.31-6.4,6.98,6.55,10.62,4.8,6.4-2.91,9.16-2.91,4.51-7.56,8.73-8,14.4,2.62,12.95,9.45-5.24,8.44-7.85,8.73,10.76,4.51,10.18-8.44,4.65-.73,8.58-.58,9.16-1.02,11.2.15,5.67,1.89,4.22,4.22-1.6,14.25,6.25,13.82-10.62-1.45-3.93-13.53,12.36-7.27,15.71-5.67,5.24,4.95,8.58,4.95,13.53-.58,15.85,5.67-2.04,15.85-7.71,14.69-10.62-6.25-9.31-3.05,4.51,7.13,8.44,6.25-2.76,11.64-9.6,11.49-5.24-.87-6.11,2.62-8.44,8.44-13.24,8.87-4.65,9.45-12.65,8.87-20.95-.87-22.69-5.09-5.38-15.42,5.38-18.91-13.38-1.6-11.05,7.85.83,9.85-1.31,12.22c-1.94,2.15-11.18,4.45-12.51,2.47-.47-.7-7.11-32.86-24.44-11.78-.98,1.19,15.09-13.21,21.24,9.02,1.46,5.27-1.16,16.44-6.25,16.44s-76.84.15-76.84.15Z"/>
</svg>